
<global>
amp_veltrack=0
ampeg_attack=0.005
ampeg_release=0.50
</global>

<group>
group_label=PP
lpc_hicc1=42
lpc_locc1=0

<region>
hivel=127
key=c4
loop_end=259971
loop_mode=loop_continuous
loop_start=67818
loop_xfade=23004
lovel=0
lpc=tRCEQnOfDcN+gY9CcFIIPcWNpEH59UTBCSRYQE0L3cC7u8rALBM4QFnugUD+lHjAJtEyQCI7nb5Ziw4/ILguQKAmUMBx3rk+1aIFQE4RlsBbYnM/GNdlPkYWCUDW2FC/
lpc_rms=-35.39
sample=Alto_sustain_PP_A#3.opus
</region>

<region>
hivel=127
key=c5
loop_end=267580
loop_mode=loop_continuous
loop_start=69803
loop_xfade=23677
lovel=0
lpc=FdMdQly+i8IQyRZC/L33wcCsHkKRmrLBIsm0QZ+AY8F9AK0/5iQkwPFshUBn/yzByaNCQa/zBMGCx9Q/WUKOQNx3rsCbBhNBmblWwDcbk0CW9wnBD+AMQARC7MDT2wpB
lpc_rms=-28.11
offset=2653
sample=Alto_sustain_PP_A#4.opus
</region>

<region>
hivel=127
key=c6
loop_end=262609
loop_mode=loop_continuous
loop_start=68506
loop_xfade=23237
lovel=0
lpc=FNgAQpurnMGpih5BkYoSwcsWUkEb40jBBoTbQCmSUr9/+RVAhuGIwDkVvEAAnTfA8zZ3QCL/vr8XBhfAT+4jQFiNFD/m4PW//OJPvZ6sCEAcSTFAXEZawPk61MDMbBrB
lpc_rms=-28.67
offset=293
sample=Alto_sustain_PP_A#5.opus
</region>

<region>
hivel=127
key=b3
loop_end=251781
loop_mode=loop_continuous
loop_start=65681
loop_xfade=22279
lovel=0
lpc=QFAVQoRRjcJuOcJB0iyBQGYYW0HdN2fA242Xv4OUScDK6re/1PY0Px7trb6+TCq/8piUP1hBXL9pbMc++EY0PzwhQr4EfbY/WnOVPq3Hcb8iZz2/Rvbqva5PhL9+GbE/
lpc_rms=-40.02
sample=Alto_sustain_PP_A3.opus
</region>

<region>
hivel=127
key=b4
loop_end=266717
loop_mode=loop_continuous
loop_start=69578
loop_xfade=23600
lovel=0
lpc=bhZRQnApy8KYyHpCDscewhyTP0JybOvBo1XFQZ3CWcHmIHPA9h4TQITlSEBAtEjBm4huQf0xAsG8ofa/GuUTQUGf5MDNbORAZJGKwGVggEDDo2zAiQmDP6ww2MAzNdtA
lpc_rms=-29.04
offset=1183
sample=Alto_sustain_PP_A4.opus
</region>

<region>
hivel=127
key=b5
loop_end=267462
loop_mode=loop_continuous
loop_start=69772
loop_xfade=23666
lovel=0
lpc=EoIxQo5f/MHaY9lACQ4ZwbJlp0HFnj7BuuncQEBLvr+u9fO9vd/EP1u7zECwpeTA9GvlQLb7HMAUHAQ/UamqQDnmlb+wXIi/iEI/QFY4CsA+vftAszmevzUYKD4xR4HB
lpc_rms=-24.50
offset=3306
sample=Alto_sustain_PP_A5.opus
</region>

<region>
hivel=127
key=c#4
loop_end=266123
loop_mode=loop_continuous
loop_start=69423
loop_xfade=23548
lovel=0
lpc=t8VoQr+z98JFcH1C+/tRwGyorUFzZU3B/w1YQIDjrsBDjazAhUpCQE22/z/3dinAh7GnQDpFTcAhyde/dbOfPw0sEsDe44FAOz6oP21pW8DX1Jg/fcqpP49sj8C2wD9A
lpc_rms=-34.34
sample=Alto_sustain_PP_B3.opus
</region>

<region>
hivel=127
key=c#5
loop_end=272874
loop_mode=loop_continuous
loop_start=71184
loop_xfade=24145
lovel=0
lpc=71siQh5Ai8IzkQNCMjSwwdWvCEKsH5PB2mSJQe3/ecE7EjpA+4ZRPMTo8UBJ83jBRVBrQdcSOsEPrV5A6pkvQB/Y+T6vJ4VA80Lsvp2t4b881zzAGmKev/WgGcDG0MxA
lpc_rms=-26.57
sample=Alto_sustain_PP_B4.opus
</region>

<region>
hivel=127
key=c#6
loop_end=269904
loop_mode=loop_continuous
loop_start=70409
loop_xfade=23883
lovel=0
lpc=rVUmQki6ksH0goQ/MqI/wa1SYUEOcOrAAKfCQEL2c0CqO1e/404xwK4e2kBlTDXAeXxDQOlbcD1A2ts+bGUCQHZMxj9WK5m/+AJiQJ+j4j5eSpfABkFQwXyKbMBEYJ1A
lpc_rms=-24.96
offset=4008
sample=Alto_sustain_PP_B5.opus
</region>

<region>
hivel=127
key=d#4
loop_end=260699
loop_mode=loop_continuous
loop_start=68008
loop_xfade=23068
lovel=0
lpc=CN9sQj5h+8IKvplCco/CwZ4jB0IieObB3CqXQaRfAcGnL5vAYkm7P16sCUHF3IHB2WZUQbdGscATgiLA5nk3QdnaLcE2FQhBt0mOwHBukb8NskVANhwpwNw4bMCXmI5A
lpc_rms=-30.84
sample=Alto_sustain_PP_C#4.opus
</region>

<region>
hivel=127
key=d#5
loop_end=253595
loop_mode=loop_continuous
loop_start=66155
loop_xfade=22439
lovel=0
lpc=NrtcQhC4hcJqZYpBHVX/wWgGHEJR9kfBUS20QauNBMGuTng+3YCAwIHKLkC/IE3BVgMqQZ574MARvqNA3nqTQJdYnkBbmERA6wUCwJeaJcCO/frASxAbPz4z4b81LUlB
lpc_rms=-26.04
offset=1209
sample=Alto_sustain_PP_C#5.opus
</region>

<region>
hivel=127
key=d4
loop_end=257275
loop_mode=loop_continuous
loop_start=67115
loop_xfade=22765
lovel=0
lpc=pZm0QpOCOcO/78dCw+uuwWN3JELaYJvBxIP3QFFuTMFa5aPAd/glQaq9Gj32LkXBjqUTQZZqpsD2KEDAQlwkQRIgU8AIKGRAjaN4vyB2r79U0AM/jpsNwNHlscB7dOBA
lpc_rms=-29.71
offset=10
sample=Alto_sustain_PP_C4.opus
</region>

<region>
hivel=127
key=d5
loop_end=257306
loop_mode=loop_continuous
loop_start=67123
loop_xfade=22768
lovel=0
lpc=whMBQrhxOsI2ZIFBz12ZwScs80HlF3bBJYRsQSf6GcHh2j9AwG5SwOLtq0AEaDLBWt8OQVLrM8BY84i/0IRIQB/16b/JxalA9K6rvrSqQUDtdwLByCcsvHh9XMDOPgBB
lpc_rms=-29.52
sample=Alto_sustain_PP_C5.opus
</region>

<region>
hivel=127
key=d6
loop_end=253246
loop_mode=loop_continuous
loop_start=66064
loop_xfade=22408
lovel=0
lpc=cdKSQt00wcHP0KjAGEaRwZlLjEGev5hALys1QfLaM0H0rDU/UV3TQG7lqUECEgnA47k4QUdyQkGt7IE+fn3vQIUFZUEk/whBIlE1QY6m1sDImbjB/xK1wLPba0HCp9JB
lpc_rms=-17.72
offset=9411
sample=Alto_sustain_PP_C6.opus
</region>

<region>
hivel=127
key=f4
loop_end=260856
loop_mode=loop_continuous
loop_start=68049
loop_xfade=23082
lovel=0
lpc=eFdlQlroBMPs/7hCgZsCwtN8MkIjQxLCLuSMQZnwOsE7GMDAzp0vQUYN2r/bbNjAhTNTQZenJsE0FHE/iRgGQXmuNsEBO25A4OHMP9wdgD8xH5Q9hSbEvqYudMAC1UpA
lpc_rms=-30.53
offset=1771
sample=Alto_sustain_PP_D#4.opus
</region>

<region>
hivel=127
key=f5
loop_end=277664
loop_mode=loop_continuous
loop_start=72434
loop_xfade=24569
lovel=0
lpc=nSSQQja2w8IP/ClCBG4hwoyIVUJ7YtXB8aDCQXOkLMGX26FAJLkYwQ+iR0EiFKDBb3fGQaB2PsEqeHpALzsBQTmNkMATChNA7d1ZPeL+NT+cC4TAim6NQDPQ0T/bkc1A
lpc_rms=-23.29
offset=2038
sample=Alto_sustain_PP_D#5.opus
</region>

<region>
hivel=127
key=e4
loop_end=258082
loop_mode=loop_continuous
loop_start=67325
loop_xfade=22836
lovel=0
lpc=DbbCQv1uUcMM9wVDiNVJwkz0h0KknzjCjU+nQcsgSMEkbCLBbYVPQQX0sj5W+YnBBCvFQapfhMEaTzhAP42uQFFoQcEPYWZBTxmKwOwphL+iLsRApeDHwOve68BPDwhB
lpc_rms=-26.29
offset=705
sample=Alto_sustain_PP_D4.opus
</region>

<region>
hivel=127
key=e5
loop_end=268815
loop_mode=loop_continuous
loop_start=70125
loop_xfade=23786
lovel=0
lpc=a1fFQtgDD8PWn4hCc/1UwncpmUJN2W/COUJlQs5U8sED7sY/1oIrv2iNn0FV7dXB/VW7QT0tXsFz3wJBsNONQOWXhsCkpORAYO7dwKBMlEEr5LPBrIQyQRv7LMFO5ZxB
lpc_rms=-23.98
offset=1466
sample=Alto_sustain_PP_D5.opus
</region>

<region>
hivel=127
key=f#4
loop_end=258301
loop_mode=loop_continuous
loop_start=67383
loop_xfade=22856
lovel=0
lpc=sC1GQs863sL1KZNCYsjowXE4IUJwD+vBfhaFQZLhHcEoXF3AChBwQIyr6z+WqCHBY6dFQR2rs8BzV5q/iKncQA6TDMFoOopA/bGYPxFXaL/972y+GfW4PwrhU8AaJvQ/
lpc_rms=-31.40
offset=163
sample=Alto_sustain_PP_E4.opus
</region>

<region>
hivel=127
key=f#5
loop_end=295801
loop_mode=loop_continuous
loop_start=77165
loop_xfade=26174
lovel=0
lpc=eZHUQnSdD8P3H4hCmmRzwnbBp0I5Qj7C0kMjQkOcWcGA5grALowmwfWZokE0r4DBSFjrQXYHq8EGnYRA3I95QTxYYMCWLNw/JRprv0/0+z9KnsLAw4lwQW5aRb/Lze9A
lpc_rms=-18.99
sample=Alto_sustain_PP_E5.opus
</region>

<region>
hivel=127
key=g#3
loop_end=257794
loop_mode=loop_continuous
loop_start=67250
loop_xfade=22811
lovel=0
lpc=8X4wQtlns8IWeCVC4LjqP/XwXkGTlAvBB/EUvqqUR8CD3wzAGp0GQNCJij8ktLC/mHS1P2DQjr/zqpm+Q8BiP2RHOb90cqY/EEdmP6mdWr8cQak+EqscPgJTRcDbOApA
lpc_rms=-37.79
sample=Alto_sustain_PP_F#3.opus
</region>

<region>
hivel=127
key=g#4
loop_end=264939
loop_mode=loop_continuous
loop_start=69114
loop_xfade=23443
lovel=0
lpc=yomWQsOzJ8NlIOlCWWhMwidlcUJh4zHCyp3gQX6oi8F+icfAKPoQQca1pUC3z53BEOXBQd6TYMHb7HrAnrNUQUnDPcGVz79AFo5QP/FDpz69UG2/aegCQHzqwcAyOn1A
lpc_rms=-26.58
offset=1156
sample=Alto_sustain_PP_F#4.opus
</region>

<region>
hivel=127
key=g#5
loop_end=253691
loop_mode=loop_continuous
loop_start=66180
loop_xfade=22448
lovel=0
lpc=TxeRQjG9lcI6lupBsTARwmUSIkJS1tzBggX/Qck+BsHn0PXAJrGrvzrEbkGPhTvBQd6FQVhby7+e5ynAnixhQTssEsHU1sZAA72/wPFwsUBBHqXAAJ3LQPr5JEEqUQTB
lpc_rms=-26.64
offset=626
sample=Alto_sustain_PP_F#5.opus
</region>

<region>
hivel=127
key=g3
loop_end=274283
loop_mode=loop_continuous
loop_start=71552
loop_xfade=24270
lovel=0
lpc=W9zNQtAzNsOczGZCKcFkQM4OGELIVzbBuTIvwOobscDa5onAbroCvc5vZECbZTE/wT81QFws2jwYZg3Aldsev6R7KsCOiBc/dtVWPkc5FUAFz1I/aDtYvyNUlMBAEpNA
lpc_rms=-31.55
sample=Alto_sustain_PP_F3.opus
</region>

<region>
hivel=127
key=g4
loop_end=274648
loop_mode=loop_continuous
loop_start=71647
loop_xfade=24302
lovel=0
lpc=QoOKQtYZDsPv7LZCMt8/wgAfdkIKhkHCWowiQi3t1MGNDVNAhDszwCLrR0FoRsDBhTKUQactT8CZrRTBERKAQcHQPMHxVepAus5VvFvk7z8TDQHBq1VZQJlslsBKx79A
lpc_rms=-26.53
offset=1394
sample=Alto_sustain_PP_F4.opus
</region>

<region>
hivel=127
key=g5
loop_end=266350
loop_mode=loop_continuous
loop_start=69482
loop_xfade=23568
lovel=0
lpc=4AV6QhnZicIoQ7ZBJYmuwV+7GkKyDq/BNmnMQZd5AMHMgyXAQkzjwHbEqkHqqj3BrFhMQfZlk8AtOOu/gNgoQSSvRT8AgvK/l+mKQJDYjL9xck1A9ecwQIWhlkBsHnhA
lpc_rms=-28.78
offset=131
sample=Alto_sustain_PP_F5.opus
</region>

<region>
hivel=127
key=a#3
loop_end=262354
loop_mode=loop_continuous
loop_start=68440
loop_xfade=23214
lovel=0
lpc=xIYfQtFPr8Lky09CpkrcwDnIbUFIAknBMemXP0N0nL8e5am/Q2tnQBvn874ZS0bAts5eQMWBQsAoHbu+jZp8QDfbDcCVnpg/3Y/zvipCE8BEJRZAz9h0v4lcgj8Idgm/
lpc_rms=-36.70
sample=Alto_sustain_PP_G#3.opus
</region>

<region>
hivel=127
key=a#4
loop_end=274575
loop_mode=loop_continuous
loop_start=71628
loop_xfade=24296
lovel=0
lpc=x5IHQmtWhcJzNS9CSMbXwdTQ8kF5DazBVqSdQUN3TcHJNZO+ndTLP7uUEkBtxhfBxZA/QS61xcCQD1o+Lvd/QD7ryMAMiIZAwZtpPzlH/r+qEMk/AMpuv9L1lz7bLbo+
lpc_rms=-30.98
offset=4170
sample=Alto_sustain_PP_G#4.opus
</region>

<region>
hivel=127
key=a#5
loop_end=263293
loop_mode=loop_continuous
loop_start=68685
loop_xfade=23297
lovel=0
lpc=VXbWQVkKwcFWfDNBM44bwR+GC0EpO7bAItIhQd8RJL8UAGC/42cgv5VhKEBieOHAFTkxQTvKSEAms3PAV5ACPyIgAj+U0BvAJzupQOwuKkCB0hdAVnRSwHIwgECyC83A
lpc_rms=-28.47
offset=3313
sample=Alto_sustain_PP_G#5.opus
</region>

<region>
hivel=127
key=a3
loop_end=266411
loop_mode=loop_continuous
loop_start=69498
loop_xfade=23573
lovel=0
lpc=gv0WQrIlkcInO9xBIFM2QHIqTUHs6IrAN+AXP3GoncCZh/2/wnblPkADM0BSC7I9/i2Qv2iEbT58SCQ+kp5iPqLocr9BDVc/FgKQP96lmb6AVrq+mvzSvihWDcDqnwVA
lpc_rms=-42.14
sample=Alto_sustain_PP_G3.opus
</region>

<region>
hivel=127
key=a4
loop_end=276786
loop_mode=loop_continuous
loop_start=72205
loop_xfade=24491
lovel=0
lpc=oIc4QtphpMKsVEFCEqXrwfz/9EEGh63BBaS0Qdh8MsEg2/q/+nHPP5JvCkDatSTB1UhOQey738AEIhPAxQz2QDn2FsFy5cpA8z21P/oPSL878l+/j61wvBTy7b/+d1lA
lpc_rms=-30.48
offset=4039
sample=Alto_sustain_PP_G4.opus
</region>

<region>
hivel=127
key=a5
loop_end=246104
loop_mode=loop_continuous
loop_start=64201
loop_xfade=21776
lovel=0
lpc=h/kAQv0A68Fw7I1BUxcxwTLZhEF2NP3ArEr6QLcj9z9XDFFAiu/zvvoqhEBxWzvAmX0YQaY/BUAmlzdAeuGSQHoPw7+OYvg+//+1QIokQj/6BXhA1uwQQG/tOkDKaCZA
lpc_rms=-26.54
offset=2249
sample=Alto_sustain_PP_G5.opus
</region>
</group>

<group>
group_label=MF
lpc_hicc1=84
lpc_locc1=43

<region>
hivel=127
key=c4
loop_end=264999
loop_mode=loop_continuous
loop_start=69130
loop_xfade=23448
lovel=0
lpc=JLBOQm3KBsMgefhCwROKwtWHdUIBODbClQ7TQTbf0sHYogJBneAuQSIH58BeMZTA12+IQf9ovcFrEmVB7EKYQIjEZsHyjkhB/Bf9wD4TPUD8Dvy/WLzqQJF2CcETdEtA
lpc_rms=-26.65
offset=1713
sample=Alto_sustain_MF_A#3.opus
</region>

<region>
hivel=127
key=c5
loop_end=271524
loop_mode=loop_continuous
loop_start=70832
loop_xfade=24026
lovel=0
lpc=zXHfQQLxXsLWAQ5Cn9eTwRsf2kEp0abBKlk4QVOOKMH0M55ARjupv8YYgUC+n97AV0EfQbjTL8EiJa1Am74wQA1Oy8DScNJA2/7WwI8V4EAb8prAQFIRQdhCWMENd95A
lpc_rms=-22.89
offset=4137
sample=Alto_sustain_MF_A#4.opus
</region>

<region>
hivel=127
key=c6
loop_end=265868
loop_mode=loop_continuous
loop_start=69356
loop_xfade=23525
lovel=0
lpc=gy2zQe3GVcEkFq5AAtCsvziznUCGkZ7AH3ZSQJ7YCkAZaNy/eJA6v17BsEDgMIDASsrKP/g/S0CYGhPAvpsqP1DgG0A0xUS+XCl0v3u+9D99wQdAt7Y5vyzS3cByaJ/A
lpc_rms=-27.10
sample=Alto_sustain_MF_A#5.opus
</region>

<region>
hivel=127
key=b3
loop_end=264569
loop_mode=loop_continuous
loop_start=69017
loop_xfade=23410
lovel=0
lpc=Xa1ZQhWZBsMeRd5CrAtXwhE5Z0IyA07ChW74QSCzvMHF3qFA5TRZQVLcI8HEgr7A5QuXQVJhs8HT7/dABAohQaGU+sDRpZdAbQTNwPOkj0BArbfAAmwQQeYGEcH28INA
lpc_rms=-26.49
offset=1511
sample=Alto_sustain_MF_A3.opus
</region>

<region>
hivel=127
key=b4
loop_end=276424
loop_mode=loop_continuous
loop_start=72110
loop_xfade=24459
lovel=0
lpc=4AQfQssrkMKOkRNC2My1wamWIEKrhuHBFOqiQT+yk8FbDNZAAseNwC4EHUHbI2fBZQ9yQcWnOsGSKlNAtOV5QK5Jg8ATynNA5bsQwCxZTkDlfq/A5gS7QANUV8A0eqw/
lpc_rms=-20.13
offset=1570
sample=Alto_sustain_MF_A4.opus
</region>

<region>
hivel=127
key=b5
loop_end=271142
loop_mode=loop_continuous
loop_start=70732
loop_xfade=23992
lovel=0
lpc=8F0bQpiV5MEXsrRAC/9pwCTeFEEHeoPAnGQfQfiJvL9+9wjA++Slv3+E3kCzcanAofV3QSzXhMBMI4XAkaotQGxC3b6h0zFAwHDvQPyr5b8K5XG/m4clP2CrnkCvTUbB
lpc_rms=-18.72
offset=5362
sample=Alto_sustain_MF_A5.opus
</region>

<region>
hivel=127
key=c#4
loop_end=264454
loop_mode=loop_continuous
loop_start=68988
loop_xfade=23400
lovel=0
lpc=1GYpQpnSzcJI26lCvxFNwvu4dUJTikHCyf/iQZPgtMHUXpNAjvPOQGvA6b/3XdTApzFjQWdGZcEAyeVAGOhAQMoVCsF4arxAiP9ewA5oc0AUMUTA/mVTQFVtfMCyWvs/
lpc_rms=-26.45
offset=1298
sample=Alto_sustain_MF_B3.opus
</region>

<region>
hivel=127
key=c#5
loop_end=262398
loop_mode=loop_continuous
loop_start=68451
loop_xfade=23218
lovel=0
lpc=SWgbQnPrh8J1+SNCcuSvwUBD1kFeasrB1EitQfYhNsHiKwy/23CkP01iyEBOzGPBw/BHQcP+psD5CxS/Q1RbQL+Og793ZC1AVhD1wJ9ZB0E8vMY9lNvtP1F3vsANBTNA
lpc_rms=-24.66
offset=4542
sample=Alto_sustain_MF_B4.opus
</region>

<region>
hivel=127
key=c#6
loop_end=269229
loop_mode=loop_continuous
loop_start=70233
loop_xfade=23823
lovel=0
lpc=YhQiQvFmy8GoBKbA1F8EwUmSZkEBoLa/eyLPQFhp6D+CwI0+/6SHwMaZRkEJk53A3eyTQOcbokBSRMPAdArfQNgklUCZAny/rYoKQKWSeECfPtfAR/AGwUBXnL+WN19B
lpc_rms=-16.86
offset=971
sample=Alto_sustain_MF_B5.opus
</region>

<region>
hivel=127
key=d#4
loop_end=269637
loop_mode=loop_continuous
loop_start=70340
loop_xfade=23859
lovel=0
lpc=dkFkQv1+D8NR9exC87lYwg4vb0LAEGbC5AUSQmVerMHUrxK/AvHpQBBX8D4YPzfBThelQZPAgsEaE6FA7ffaQFI2H8HLcr9AO0ykwEz7Q0BvzMa/0s50P6UrZT9ThyS/
lpc_rms=-24.92
offset=5349
sample=Alto_sustain_MF_C#4.opus
</region>

<region>
hivel=127
key=d#5
loop_end=269461
loop_mode=loop_continuous
loop_start=70294
loop_xfade=23843
lovel=0
lpc=aWDtQaDkEcIAWr5A15UMwejvqkFx/hLBZ624QKsVyL8IWAfAXPpBvkk3nUBYAArBHGbeQBlWLcD8nya+Hf+AP5R+Rr0poqhAB50iwA4b1kAs6u7A11QVwEkKB8Ak7vtA
lpc_rms=-20.38
offset=5138
sample=Alto_sustain_MF_C#5.opus
</region>

<region>
hivel=127
key=d4
loop_end=266741
loop_mode=loop_continuous
loop_start=69584
loop_xfade=23603
lovel=0
lpc=/P9tQvu/G8OdeQxDG2WVwqqXmUKeXY/CNeorQlik38F2kt9AoRDTQE5cR0B3Rn/BI2CxQTikw8FIDjBBlNwhQZP4VsFZpg5BVa6nwDpqpz/ImgTAQUJMQPClKcDdOKI/
lpc_rms=-24.05
offset=998
sample=Alto_sustain_MF_C4.opus
</region>

<region>
hivel=127
key=d5
loop_end=268686
loop_mode=loop_continuous
loop_start=70091
loop_xfade=23775
lovel=0
lpc=8T2kQRuaAsJwB0FBQ+KEwHitZEE5wETBDVsIQcX0wsBlmsU/Tz5ivj7TZ0ASGsfAXj21QPBALMBw0QW+vGJLQEfglsDXwU5Ao3PmvwuTw0DLg1DAuw6dvyY6d8DjpaVA
lpc_rms=-23.97
offset=1893
sample=Alto_sustain_MF_C5.opus
</region>

<region>
hivel=127
key=d6
loop_end=262970
loop_mode=loop_continuous
loop_start=68600
loop_xfade=23269
lovel=0
lpc=Y6w4QmEMD8EtK0HBXWoowbe7OUEVG5RAYVsOQHuXEEE/nmVARcfxP0CuMUHhOVw/pHnSQBaG6EDBe74/c0q6QH3SokCg3uhAF+nsQPAejb+FBJTBvi0kwd6PhEG/eJFB
lpc_rms=-17.20
offset=1069
sample=Alto_sustain_MF_C6.opus
</region>

<region>
hivel=127
key=f4
loop_end=270923
loop_mode=loop_continuous
loop_start=70675
loop_xfade=23973
lovel=0
lpc=OW1hQt8qFcNBEwZDLw9ywnB6Y0LcqnnCt9YkQjz0xMH/upRAh1nAQFIdqEBR+pXBLt+8QZy3p8EajilBBMRvQN2k98DvZitAl4NmP+xtE8CjGeq/vjo6QAGuN0AppC/A
lpc_rms=-20.29
offset=1459
sample=Alto_sustain_MF_D#4.opus
</region>

<region>
hivel=127
key=f5
loop_end=270616
loop_mode=loop_continuous
loop_start=70595
loop_xfade=23946
lovel=0
lpc=Iz5rQoivosIKnAtC/jCZwePwAkKcZazBoC9iQdPDOsBUa0s/lWHTPheuHEHRtIjBErVKQQbKAsEz7QZBPVSaQIlITcCq0tJA8XifwEv+vEC9VxrBM7jKQFFInMA0N1BB
lpc_rms=-14.52
offset=10319
sample=Alto_sustain_MF_D#5.opus
</region>

<region>
hivel=127
key=e4
loop_end=277031
loop_mode=loop_continuous
loop_start=72269
loop_xfade=24513
lovel=0
lpc=wKeTQl1kNsMGGBRD1yyGwt7mj0IIW4PCYeAkQvZG3cHIFVA//Q8qQYPaIT/9gI3BGDX/QV3V0cEsxMpARBqjQG9xNMEjaYJBs1szwRYa7EDDQ+LAmGXcQHdyKsHGINtA
lpc_rms=-21.57
offset=1778
sample=Alto_sustain_MF_D4.opus
</region>

<region>
hivel=127
key=e5
loop_end=277252
loop_mode=loop_continuous
loop_start=72326
loop_xfade=24533
lovel=0
lpc=zWA0QkGmVMIFIExBN7tBwc7UvUFKBFnBWP93Qdls1MC2gF/AuUXOP9d6MEGh22rBJJMCQRzHnL+CgYPASm0oQPeaoEDlxAVBZqd8wAmTmUDDCC3Bold4vx/Tlr81HTdB
lpc_rms=-20.34
offset=12781
sample=Alto_sustain_MF_D5.opus
</region>

<region>
hivel=127
key=f#4
loop_end=269285
loop_mode=loop_continuous
loop_start=70248
loop_xfade=23828
lovel=0
lpc=ab92QpMmIMOmWhBD8PeZwiLGmkKI2ZrCIrVgQsuDDcL63UpBMVGlwL8yOUHG7uDBTu8aQuSw58HXrjtBW/XtQCulkMF37z1BsdOJvkqeCj+7QBbBimMxQVKJ5MABGShA
lpc_rms=-21.07
offset=966
sample=Alto_sustain_MF_E4.opus
</region>

<region>
hivel=127
key=f#5
loop_end=280233
loop_mode=loop_continuous
loop_start=73104
loop_xfade=24796
lovel=0
lpc=YE2EQmoxu8LMYCRC0riSwbDbBELTt6LB8hpRQR05vL/udYLAvvmEQHvvwkAqyBPB98JTQZsEHsHmh0C+ww1/Qd71c8DAD0E/4nnxwByuoEBru31AATg6QBWZAMAyBdVA
lpc_rms=-13.94
offset=12500
sample=Alto_sustain_MF_E5.opus
</region>

<region>
hivel=127
key=g#3
loop_end=258082
loop_mode=loop_continuous
loop_start=67325
loop_xfade=22836
lovel=0
lpc=pXI4QuXL7MKL+cZCNX8Twlxd60EB+93Bl4CCQaoYO8G5sUTA0IsYQSjmob8CTI3A4+AgQfw7PMG4xwVAbACmQGBAnsDnx55A+GvQv5/h2L4Ovm2/528zv+kYrD/IXD2+
lpc_rms=-32.01
sample=Alto_sustain_MF_F#3.opus
</region>

<region>
hivel=127
key=g#4
loop_end=269734
loop_mode=loop_continuous
loop_start=70365
loop_xfade=23867
lovel=0
lpc=MkJrQt36E8PevgJDv5WOwoGJk0J4/5PC9AZIQow6/sHdm2pBlLetv+yDVEBM+4XBN1nRQfXfucGXiXlBtgbVPyt0jcFD1ThBRJSDwLNYEUH/kBrBsHTJQMc77sCQ/phA
lpc_rms=-19.88
offset=701
sample=Alto_sustain_MF_F#4.opus
</region>

<region>
hivel=127
key=g#5
loop_end=248172
loop_mode=loop_continuous
loop_start=64740
loop_xfade=21960
lovel=0
lpc=0btdQqFXeMKl+FdBbnvIwJhZx0FqpHHBWDeuQL74hECCCCrANehKQFQUpUBoDIHBgWt5QZOvrEAgmrk/+UU7QJKwkcCK8JzA3xxwQFOzpEAxugtAZrRwv3uAlkA7HwTA
lpc_rms=-15.98
offset=1438
sample=Alto_sustain_MF_F#5.opus
</region>

<region>
hivel=127
key=g3
loop_end=272539
loop_mode=loop_continuous
loop_start=71097
loop_xfade=24116
lovel=0
lpc=ie5PQnw3BsPyrfBCGIdrwt9fMkJZ8g/CyhW/QaSEdsH1pUDAqswvQc/opT7E50DBeu6JQWbzZ8HzywhA3F3sQFV9FcHfBeZAykD7v/+Py7/rREBA7cORwM0WiUCTYMi/
lpc_rms=-29.23
offset=1523
sample=Alto_sustain_MF_F3.opus
</region>

<region>
hivel=127
key=g4
loop_end=272990
loop_mode=loop_continuous
loop_start=71214
loop_xfade=24156
lovel=0
lpc=na06Qp5U+sJXwOVC8jNXwhUkS0I5mVTCfeUFQiB0zsE+l1FBYXZHQBRXLMDXUDPB5VfWQet70MFO9whBb6/4QK/6KMH6gYVAX1mRwOxJ8UDa6p3AbYUkQbQneMEXc+BA
lpc_rms=-22.69
offset=12054
sample=Alto_sustain_MF_F4.opus
</region>

<region>
hivel=127
key=g5
loop_end=278039
loop_mode=loop_continuous
loop_start=72532
loop_xfade=24602
lovel=0
lpc=zFX+QQhAFcINXFtBd6nkwN10g0FPQhvBbhvsQDUttT8XwnLACuEgQL0830BngBbBARjSQDT1iz8biUG/9FTmQGA/Rb+dsCrA7yblvWjAhkCg5q4/cTXSvzU2aECq41dA
lpc_rms=-20.83
offset=528
sample=Alto_sustain_MF_F5.opus
</region>

<region>
hivel=127
key=a#3
loop_end=281092
loop_mode=loop_continuous
loop_start=73328
loop_xfade=24872
lovel=0
lpc=xeB0QrbXIsP4mhdDDPuhwl9zkEI4a3HCtf8YQlXP8cFVcCZAKqRJQeG6GD/xzFTBFo/CQT4n0MHJqiJBqxjbQKggHsEl6/JAiW25wNNoOb8DiTlADm7jP8rYE8BdbsQ+
lpc_rms=-26.15
offset=2031
sample=Alto_sustain_MF_G#3.opus
</region>

<region>
hivel=127
key=a#4
loop_end=271531
loop_mode=loop_continuous
loop_start=70834
loop_xfade=24026
lovel=0
lpc=3Kj3QYjMgsKmKlJCO9ETwk9yJELlaAvC/nnXQZMwo8E/WeJAPlUKQLrEK79kGxHBH3WEQXpbX8FbbAhBnSRQwLo6McBFGG9AzQc2wHhrw0DZcAbBsnMTQWea28Bz8jtA
lpc_rms=-23.41
offset=2779
sample=Alto_sustain_MF_G#4.opus
</region>

<region>
hivel=127
key=a#5
loop_end=273153
loop_mode=loop_continuous
loop_start=71257
loop_xfade=24170
lovel=0
lpc=FhYHQvmpyMFBJpVARn6hP8maMUEQHpHAnB7mQIeFn72u1JE/UnwsQIzi+kA9kdLAulQHQbGVWUAKuwnAm9mxQOkqRUD4gFg+//4hQETFMUCekl5AjP3DP2nqBUEh5wHB
lpc_rms=-18.69
offset=1848
sample=Alto_sustain_MF_G#5.opus
</region>

<region>
hivel=127
key=a3
loop_end=268889
loop_mode=loop_continuous
loop_start=70144
loop_xfade=23793
lovel=0
lpc=zRYiQqI8y8L4nrRCvutBwonUJULwNgfC54rKQfi2jMGEoxG/6MkFQXTXEcDN89TAmeZdQWm4WMFu+E5AsSLDQOBqoMAeyT1AxR4MwBNbez/T10TAaDCoQNitkMAipAdA
lpc_rms=-30.43
offset=2741
sample=Alto_sustain_MF_G3.opus
</region>

<region>
hivel=127
key=a4
loop_end=270292
loop_mode=loop_continuous
loop_start=70510
loop_xfade=23917
lovel=0
lpc=8bfUQWHtcML2UDZCIbStwXz4wEF2qLnBUF+QQVb9VcE1nJZAGh8rQCxczb8QPPvAn0BaQWQRR8GD79BALyIOQNQvS8CdaAO/43dtvjtcZ0A/9ZHA3IWHQMZkqcDf5lBA
lpc_rms=-26.33
offset=1895
sample=Alto_sustain_MF_G4.opus
</region>

<region>
hivel=127
key=a5
loop_end=263614
loop_mode=loop_continuous
loop_start=68768
loop_xfade=23326
lovel=0
lpc=O4CvQUndoMFGFeNAfV9LPwTz00DvOR3Agg9JQFOvHEBwDwi/UaJ2QNYrG0DsT2TAlsDdQM+leD+JFQk/+NhNQPgcJr/UHjFAIosTQIW7mz+/2ZE/lRARQEv0e0CVixY+
lpc_rms=-23.21
offset=894
sample=Alto_sustain_MF_G5.opus
</region>
</group>

<group>
group_label=FF
lpc_hicc1=127
lpc_locc1=85

<region>
hivel=127
key=c4
loop_end=269961
loop_mode=loop_continuous
loop_start=70424
loop_xfade=23888
lovel=0
lpc=q/3eQfZIdsJq4zBCt/W6wR5jBkKqz/XBZ7WaQTupdcGIALxAAWiIP76RX0CTqezADKUbQcx2EsHEKCxAQH9FP90AsL8xtxpAwB7DvzI6DEAEc2LAxLxNQHNqGMDQjZ0/
lpc_rms=-24.72
offset=2137
sample=Alto_sustain_FF_A#3.opus
</region>

<region>
hivel=127
key=c5
loop_end=269758
loop_mode=loop_continuous
loop_start=70371
loop_xfade=23870
lovel=0
lpc=y2O+QZKYQsJouvdBCduBwaLxxUEFHKjB+/pjQfLpLMFHHodAjbaNPYa3AkBsHODAQjQbQfZ2HcFTSrFAYKgmPQxeMr88aMy+GNKvPqjjJUDufaa/NyXMvmO3ksDDbY5A
lpc_rms=-17.62
offset=3393
sample=Alto_sustain_FF_A#4.opus
</region>

<region>
hivel=127
key=c6
loop_end=263763
loop_mode=loop_continuous
loop_start=68807
loop_xfade=23339
lovel=0
lpc=iBsHQs1SyMHeXiRBGrelwEdiGkF222PAUhcOQBIoREBNs/i+ZDe6PwHS50DCyQPBfVeEQEJMqEAeP7S+hXCdP0RmcT9bDJ8/uECRvj71mkAh29W/qgoWQBlDG8G28gTA
lpc_rms=-12.15
offset=1134
sample=Alto_sustain_FF_A#5.opus
</region>

<region>
hivel=127
key=b3
loop_end=274477
loop_mode=loop_continuous
loop_start=71602
loop_xfade=24287
lovel=0
lpc=ibwIQhuapsJvDI5Cu+Qhwqs0OELvJyrCNp/TQXTMk8HN2CZBc8WiwFIXz0COQD7B7XKVQUfWjMFbHg1BxT/0vfNWb8C1Em0+49s7QIqvGD8lTw/A8QhkQJK1zcCdTG1A
lpc_rms=-24.49
offset=3144
sample=Alto_sustain_FF_A3.opus
</region>

<region>
hivel=127
key=b4
loop_end=282876
loop_mode=loop_continuous
loop_start=73793
loop_xfade=25030
lovel=0
lpc=FqPSQZQGbsKLrihCpB6EwWvjxkFGodTBTFFSQa6ItsDTQsFALY9vwGLX6D/G1OHANwA3QYqONsF5ZaBA9dSEQAkPwsC3sEdAAiivv7ADiEA8VJbAkexyQIoO0cCYkolA
lpc_rms=-16.86
offset=1416
sample=Alto_sustain_FF_A4.opus
</region>

<region>
hivel=127
key=b5
loop_end=273613
loop_mode=loop_continuous
loop_start=71377
loop_xfade=24211
lovel=0
lpc=uGqzQb9LicEXXuhAoaABwNwGxUBYEUfATlZkQPHOGkAR/ozAV1aTQEoXfkCXEJ3AvOO6QG0l07/XALw/C/WSQGwMO8DryoU/Yn1RQM2ccD+KOPE8dkLrPym+YkC+2xzB
lpc_rms=-16.86
offset=483
sample=Alto_sustain_FF_A5.opus
</region>

<region>
hivel=127
key=c#4
loop_end=272385
loop_mode=loop_continuous
loop_start=71056
loop_xfade=24102
lovel=0
lpc=ib6iQZ+XMsJMlvVBh9BMwWKYnEGfRKnBuXRgQV6XC8E51y9AakVpP8Sfuj/ZAMfAZ3gNQYAX48C0wOQ/KGV5QFbxhcBEpy0/FcY3vxI0OEDwOEfAwP0mQIv4AsCx+mQ/
lpc_rms=-25.37
offset=1455
sample=Alto_sustain_FF_B3.opus
</region>

<region>
hivel=127
key=c#5
loop_end=269801
loop_mode=loop_continuous
loop_start=71166
loop_xfade=9010
lovel=0
lpc=T2DnQZxiUMIAa99BtAxiwbFzwUGysafBIpBQQYmC58CQrURAp27XvkwxZUAQlSjBnCkpQecjwcABxCBAlSsOQJrozr/4kUK+vRwZwKRbqECnxobAkXqDQEk54cD98q9A
lpc_rms=-18.03
offset=662
sample=Alto_sustain_FF_B4.opus
</region>

<region>
hivel=127
key=c#6
loop_end=271950
loop_mode=loop_continuous
loop_start=70943
loop_xfade=24064
lovel=0
lpc=UshQQrHWBcKi31/AA7jRPpTPdUHajK7A0oarQASYHkFmSFLAO6SzQHfXZkGsqSTB+PrkQLfBV0HxR6fAfxqBQE5PCUFoVDdAm6N3v5d7WkHMfSA+x/WvwdQLGMGgWuJB
lpc_rms=-14.32
offset=496
sample=Alto_sustain_FF_B5.opus
</region>

<region>
hivel=127
key=d#4
loop_end=267187
loop_mode=loop_continuous
loop_start=69701
loop_xfade=23642
lovel=0
lpc=XhSZQVHZJsJDMN9Bh4IxwduakEGAz47BVuwoQR5g6sCx+glAMU6+vtwyfkCqTfXAOvcPQU9vxsDu7LM/T0wPQMSV+7/l3oi/o5IxQCit2r+o+cU9rqswv3YOEEBPkqS/
lpc_rms=-22.78
offset=1265
sample=Alto_sustain_FF_C#4.opus
</region>

<region>
hivel=127
key=d#5
loop_end=275913
loop_mode=loop_continuous
loop_start=71977
loop_xfade=24414
lovel=0
lpc=yBnVQbIAIcIgMUtB98zfwJsZp0G5fzvBhxyLQEJ3IsCFWm0/8NCvv2o0fUBVbvXA6MD+QPPcIMAaohfAvP6VQKP0QsBtY9M/ZpGCP/L8bUCrg4HAVD/nv5EjacDFKedA
lpc_rms=-17.06
offset=3477
sample=Alto_sustain_FF_C#5.opus
</region>

<region>
hivel=127
key=d4
loop_end=271122
loop_mode=loop_continuous
loop_start=70727
loop_xfade=23990
lovel=0
lpc=KRiQQUsnH8J9CORBfIdLwdgQi0GIw43BWbQzQaK2+8BZQz5A0OiKPzrI3D8TLcLA5hT+QP5vzsAmtXg/NpQzQEP/7b/BcUS/ZigVQMtitr9K8x2/7rCuPlBOmT8KAyS/
lpc_rms=-24.61
sample=Alto_sustain_FF_C4.opus
</region>

<region>
hivel=127
key=d5
loop_end=279925
loop_mode=loop_continuous
loop_start=73024
loop_xfade=24769
lovel=0
lpc=6IiWQdrT7sGm2jNBFiMEwaYnkUHT0BvBFKuTQDaRksBwgkE/jHVivwFykUDCiIjAGFh6QDjBQ8CNT8C+6yQyP7O4UL8bEyVAJ0mLP9PaHUDckqLAa+joPvu7ZsAGhadA
lpc_rms=-19.46
offset=1308
sample=Alto_sustain_FF_C5.opus
</region>

<region>
hivel=127
key=d6
loop_end=267235
loop_mode=loop_continuous
loop_start=69713
loop_xfade=23646
lovel=0
lpc=RG8bQvJQScEjLInAZ+AdwZBMSkE/vmc/qaTAQHrHrUA7oqxAWtwmQODED0Fy2Pk/bAvRQNDB10DPNRdApljRQPkUjUD8HoRAqzAGQbspSUAmYInBQCDEwLA2XEHdhHhB
lpc_rms=-14.49
offset=922
sample=Alto_sustain_FF_C6.opus
</region>

<region>
hivel=127
key=f4
loop_end=276863
loop_mode=loop_continuous
loop_start=72225
loop_xfade=24498
lovel=0
lpc=uRfxQcWEjMKrblpCDA7HwfjY80GWNfzBqVusQbFlgcEK5dxAz2pDPwVzOEBptU3BqxCTQVPhD8Eafvq/O/GCQAdE58DZXfJAbyoXwASBFUCO8JjAToWAQNLQwL+cDiE+
lpc_rms=-18.64
offset=2135
sample=Alto_sustain_FF_D#4.opus
</region>

<region>
hivel=127
key=f5
loop_end=253928
loop_mode=loop_continuous
loop_start=66242
loop_xfade=22469
lovel=0
lpc=Rl39QTC7LsIbmYhBgIQGwaWRiUG4UBPBGs+LQK8xdr8rqMm/R+GWQOOY6j6b1MPA7uLQQLAN57/pwx++LtSCQL/Cv7/F3b8/yKxLP7DdfT+3/z/AUJvLP8S9EsBvttpA
lpc_rms=-15.54
offset=865
sample=Alto_sustain_FF_D#5.opus
</region>

<region>
hivel=127
key=e4
loop_end=275590
loop_mode=loop_continuous
loop_start=71893
loop_xfade=24386
lovel=0
lpc=kjswQglkwMI/kYxCfbEBwpP/HkKp1ybCOYYOQia01sEhqAZBhcYiPGadDUFmiXXBxT51QeyaSMElLqRAMhIGQXyuNsHEC1hAmxEbvSIvaED6+YjAFoq/QLJUIMH5PtVA
lpc_rms=-19.46
offset=985
sample=Alto_sustain_FF_D4.opus
</region>

<region>
hivel=127
key=e5
loop_end=280054
loop_mode=loop_continuous
loop_start=73057
loop_xfade=24781
lovel=0
lpc=FilFQmyJhML5fplBQ1cdwa7OuUEv/zDBfHonQUuchL7ksevA4mkEP6SbIUGSzpLB/aGEQSr3HcDPOAnAoOLmP4fy5r8m+8VAI57IQEyFosB+/GzABaqJwGiVBUCxGRJB
lpc_rms=-14.07
offset=14069
sample=Alto_sustain_FF_D5.opus
</region>

<region>
hivel=127
key=f#4
loop_end=276640
loop_mode=loop_continuous
loop_start=72166
loop_xfade=24479
lovel=0
lpc=ZzMaQiuKssKux49Cz3wYwgr3MELMgiTCUavdQUB5rMHOtxBBEXGuP+q3l0DZAIvBkgDJQSGFhcH0Ik1AikHfvkeltr+eKcpAtBwowHamlL7cO7HAwhAwQZY8CsG/M09A
lpc_rms=-17.50
offset=2918
sample=Alto_sustain_FF_E4.opus
</region>

<region>
hivel=127
key=f#5
loop_end=269855
loop_mode=loop_continuous
loop_start=70397
loop_xfade=23878
lovel=0
lpc=3BIuQhAlbMJZ46pBjiLwwNseqkFyuUXBjYmsQFnDo8DrXdBASc3+vysJrEANeMbAG1MiQT87usBZtTXAHN8OQds3hcC0CLs/KtgcQMkniL6GR88/TDl5PzMsob+7LptA
lpc_rms=-11.97
offset=561
sample=Alto_sustain_FF_E5.opus
</region>

<region>
hivel=127
key=g#3
loop_end=277493
loop_mode=loop_continuous
loop_start=72389
loop_xfade=24554
lovel=0
lpc=0W3LQZYPeMKuIlxCV8IMwl7aE0Jf+fvBJZS2QcVHhMF2sFhANIhdQFhu/r5PUYbAWx8TQVQMHcFRXVlAgz4lQI+tfsD7V3VAshlMwBTff0ApIJTAsFFvQAlmRMAt/8E/
lpc_rms=-26.48
offset=3313
sample=Alto_sustain_FF_F#3.opus
</region>

<region>
hivel=127
key=g#4
loop_end=283842
loop_mode=loop_continuous
loop_start=74045
loop_xfade=25116
lovel=0
lpc=2vjlQXhNicKxi1hCRJLYwageFkLD1hjCKSm0QZ2TgME1YBFBN0gqwM5g1kDzyzfBwJJjQbkfecFMHf5AMIEFQPTbF8CsK2fAPDFeQIxOFkDCQRDA4wuzP67Ka8BIyg1A
lpc_rms=-20.56
offset=1118
sample=Alto_sustain_FF_F#4.opus
</region>

<region>
hivel=127
key=g#5
loop_end=270988
loop_mode=loop_continuous
loop_start=70692
loop_xfade=23978
lovel=0
lpc=nP7kQYG95MEtqsVAe4mQvyb/U0EKHnDA2a9YP+1UW76foDdAZWt7P+qDrUAlcb7AVHwBQXjQyr+LqAu/8rKoQBCjwj5cLUC/PiuRQNrSJb/45wJACi55PiYqkUCuTZ0/
lpc_rms=-16.26
offset=804
sample=Alto_sustain_FF_F#5.opus
</region>

<region>
hivel=127
key=g3
loop_end=277967
loop_mode=loop_continuous
loop_start=72513
loop_xfade=24596
lovel=0
lpc=B2xBQqyc9MJR7d1CIaCDwgbJa0Jk9jjCzvQLQm0O7sH8PxFBMuWoQO0IHz8nBSbBW99hQZvKPcH1aQHAbN1tQXqVKcFIKkQ/qH/vQNDbOcFlfA9Bgd8gwb5ePUH0eKXA
lpc_rms=-27.82
offset=762
sample=Alto_sustain_FF_F3.opus
</region>

<region>
hivel=127
key=g4
loop_end=280688
loop_mode=loop_continuous
loop_start=73222
loop_xfade=24837
lovel=0
lpc=UhXXQUdlg8KAmVhCsHjMwXIY70EF4vLBxu6NQX37MMEaHNVAu1GpwB7A8kAI/DfB5oJ6QTUCTsEKq6ZAAainPouMB8DhYAK/ywCbQPELp8AkuF1AoNaGwGUjiEAztbO/
lpc_rms=-18.96
offset=752
sample=Alto_sustain_FF_F4.opus
</region>

<region>
hivel=127
key=g5
loop_end=270265
loop_mode=loop_continuous
loop_start=70503
loop_xfade=23914
lovel=0
lpc=6CDbQVXy58Hm86lAsRBuwP4/XEFbwLHAdDCqP5fcJUDqXxBAyZX3v13gekCUuOHAo0u0QK4qC78FEzJAiZCdQHsBtD0JCZzAYIloPyYhoD8qVeU///QVQBRCHUAVDqI+
lpc_rms=-15.63
offset=730
sample=Alto_sustain_FF_F5.opus
</region>

<region>
hivel=127
key=a#3
loop_end=276583
loop_mode=loop_continuous
loop_start=72152
loop_xfade=24473
lovel=0
lpc=WgPjQQIdhcLDOFpCSkYCwmZ/E0KPM/LBHlKrQbGVjsGWGbBAZvYnP9MZZ0Dt4gHBfUI8QU9+I8FozylAzQugQB9mxMCvQgdAoDTMP3L1h8BKbRZAnm6LP1uN9z78s4W/
lpc_rms=-23.83
offset=5691
sample=Alto_sustain_FF_G#3.opus
</region>

<region>
hivel=127
key=a#4
loop_end=279642
loop_mode=loop_continuous
loop_start=72950
loop_xfade=24744
lovel=0
lpc=6hGHQS/XFsJM2+hBnkBpwXaTfkEOc37Bk+hdQTVmLcEZkmNA+ALMvjAhikDCdgXBMycKQZdIusALEOk+CQyKQA1nh8AVS3E/PkmuPegG/j+DONW/7xIMPuj+pr7KRwk/
lpc_rms=-23.60
offset=749
sample=Alto_sustain_FF_G#4.opus
</region>

<region>
hivel=127
key=a#5
loop_end=271144
loop_mode=loop_continuous
loop_start=70733
loop_xfade=23992
lovel=0
lpc=twOPQS9dZMHVv3xARL4/P2Q71UBMFgjA91ZFPzDrT0CaDbE+II4GQOLXVEDuc33ArfipQJk7I0DOYvK/7QITQOjdJUByp/c/KrSfPtJqwj/9O40/rSLVP6llo0AIYoPA
lpc_rms=-18.74
offset=1110
sample=Alto_sustain_FF_G#5.opus
</region>

<region>
hivel=127
key=a3
loop_end=278612
loop_mode=loop_continuous
loop_start=72681
loop_xfade=24653
lovel=0
lpc=tQcbQqtiwsJEArJCbRBjwmBpY0JcoznCarAFQgm478EzY1JBwAXMP3FJGL/MxcHAviWAQWurksH+UfVAEdeeP5RsuMAF9OZAx0R0wC2+nkAaXwzB5ZYSQRlU3sDt9TJA
lpc_rms=-25.24
offset=2673
sample=Alto_sustain_FF_G3.opus
</region>

<region>
hivel=127
key=a4
loop_end=286552
loop_mode=loop_continuous
loop_start=74752
loop_xfade=25356
lovel=0
lpc=lT6MQfPjEcIwUq9BqUXhwOFcRUHAlSrB7LviQD8I5cD0hO0/WI1RP5GDEkDN3cDAn/IUQRlJw8AQICO/MYLXP8zcgD7jBg/Aj/w+QIn2JL8HVr8+sB2mv1IUWr7QqlY/
lpc_rms=-21.76
offset=1202
sample=Alto_sustain_FF_G4.opus
</region>

<region>
hivel=127
key=a5
loop_end=270773
loop_mode=loop_continuous
loop_start=70636
loop_xfade=23959
lovel=0
lpc=CbZIQUtdOsFzM6FAc2jIvhMDkECeQai/86KnP9lI6j9iyzM/vDWJPq8bH0D2a/O+o9ZFQJO4Mb9NHrS6idJ4QBbPWD7pfXA9uUXYP/YlpD8qvSU/laCGP+WJBkBjqVc/
lpc_rms=-20.59
offset=1005
sample=Alto_sustain_FF_G5.opus
</region>
</group>